# xmcd
#
# Track frame offsets:
#  150
#  14535
#  25462
#  39662
#  56725
#  79327
#  101632
#  115812
#  139945
#  156720
#  170490
#  190130
#  213780
#  233425
#  251215
#  275137
#  296462
#  315612
#
# Disc length: 4501 seconds
#
# Revision: 3
# Processed by: cddbd v1.5.1PL2 Copyright (c) Steve Scherf et al.
# Submitted via: Collectorz.com_Music_Collector 6.11
#
DISCID=0e119312
DTITLE=Various Artist - American Folk Blues Festival '80
DYEAR=1991
DGENRE=Blues
TTITLE0=Louisiana Red - Pretty Woman
TTITLE1=Louisiana Red - I Wonder Who
TTITLE2=Louisiana Red - Lonesome Train
TTITLE3=Willi Mabon - Hubert Sumlin - Taylor, Edie - Stroger, Roger - Odie Payne - Mabon's Boogie
TTITLE4=Willi Mabon - Hubert Sumlin - Taylor, Edie - Stroger, Roger - Odie Payne - I Don't Know
TTITLE5=Washboard Doc - Lucky and Flash - Red, Lousiana - Shake, Rattle And Roll
TTITLE6=Eunice Davis - Sunnyland Slim - Rock Little Daddy
TTITLE7=Washboard Doc - Lucky and Flash - Red, Lousiana - Flip, Flop And Fly
TTITLE8=Hubert Sumlin - Carey Bell - Taylor, Edie - Gamblin' Woman
TTITLE9=Hubert Sumlin - Carey Bell - Taylor, Edie - I Got A Little Thing They Call It Swing
TTITLE10=Carey Bell - Hubert Sumlin - Eddie Taylor - Stroger, Roger - One Day I Get Lucky
TTITLE11=Carey Bell - Hubert Sumlin - Taylor, Edie - Stroger, Roger - Nineteen Years Old
TTITLE12=Carey Bell - Hubert Sumlin - Eddie Taylor - Stroger, Roger - What My Mama Told Me
TTITLE13=Sunnyland Slim - Carey Bell - Hubert Sumlin - Eddie Taylor - Stroger, Roger - Everytime I Get To Drinking
TTITLE14=Sunnyland Slim - Hubert Sumlin - Eddie Taylor - Carey Bell - Stroger, Roger - Sunnyland's New Orleans Boogie
TTITLE15=Eddie Taylor - Sunnyland Slim - Hubert Sumlin - Carey Bell - Stroger, Roger - Dust My Broom
TTITLE16=Eddie Taylor - Sunnyland Slim - Hubert Sumlin - Carey Bell - Stroger, Roger - There'll Be A Day
TTITLE17=Louisiana Red - Hubert Sumlin - Carey Bell - Sunnyland Slim - Odie Payne - Labour Blues
EXTD=
EXTT0=
EXTT1=
EXTT2=
EXTT3=
EXTT4=
EXTT5=
EXTT6=
EXTT7=
EXTT8=
EXTT9=
EXTT10=
EXTT11=
EXTT12=
EXTT13=
EXTT14=
EXTT15=
EXTT16=
EXTT17=
PLAYORDER=
